<svg xmlns="http://www.w3.org/2000/svg" version="1.0" width="570.000000pt" height="649.000000pt" viewBox="0 0 570.000000 649.000000" preserveAspectRatio="xMidYMid meet">

<g transform="translate(0.000000,649.000000) scale(0.100000,-0.100000)" fill="#f9f9f9" stroke="none">
<path d="M2375 6480 c-449 -50 -876 -224 -1199 -488 -38 -32 -82 -67 -97 -80 l-29 -23 -100 60 c-372 227 -690 333 -842 282 -52 -17 -95 -70 -103 -125 -15 -100 54 -283 185 -491 79 -125 195 -288 273 -384 l60 -75 -18 -45 c-81 -210 -122 -351 -149 -511 -120 -707 104 -1439 598 -1949 93 -96 238 -224 295 -262 l24 -15 -27 -80 c-15 -43 -42 -108 -60 -144 l-33 -65 -391 -3 -392 -2 -16 -25 c-15 -23 -15 -36 -4 -118 40 -303 173 -648 351 -916 230 -346 523 -604 894 -786 222 -109 423 -173 670 -212 154 -24 496 -24 655 0 750 115 1381 577 1710 1252 105 216 169 415 205 635 19 121 19 126 -5 150 -19 19 -33 20 -272 20 l-253 0 -50 61 c-27 33 -50 65 -50 70 0 5 115 62 255 126 140 64 274 129 297 144 77 53 104 125 79 211 -13 44 -37 79 -147 203 -72 83 -133 155 -135 160 -1 6 34 84 79 174 l83 165 329 98 c203 61 347 109 374 126 128 79 227 449 271 1016 13 164 13 301 0 347 -16 58 -52 102 -102 128 l-48 23 41 47 c149 169 107 303 -116 366 -44 13 -115 19 -265 22 -229 6 -391 -8 -602 -52 -67 -14 -125 -22 -128 -18 -4 5 -32 42 -63 83 -349 472 -886 792 -1483 886 -118 18 -437 26 -549 14z m570 -154 c370 -68 709 -221 987 -445 106 -85 268 -249 340 -345 l60 -79 -174 -57 c-95 -32 -199 -69 -231 -83 l-57 -26 -83 86 c-227 237 -522 400 -859 474 -121 27 -405 37 -545 19 -273 -34 -552 -145 -769 -305 -41 -30 -76 -55 -80 -55 -3 0 -44 34 -91 75 -47 41 -128 107 -181 147 l-95 72 49 44 c276 246 689 430 1092 487 132 19 512 13 637 -9z m-2264 -381 c143 -71 369 -219 549 -359 149 -116 380 -348 485 -488 81 -109 87 -120 81 -153 -4 -19 -2 -52 4 -74 l10 -39 80 35 c88 38 263 85 380 102 124 19 404 25 535 12 207 -20 390 -65 516 -126 28 -13 57 -21 63 -18 6 4 42 31 80 60 135 105 379 241 557 311 264 105 659 199 922 220 l97 8 0 -26 c0 -45 -50 -212 -97 -323 -25 -60 -77 -156 -117 -215 -64 -96 -77 -110 -131 -139 -90 -48 -256 -121 -380 -165 -98 -35 -330 -98 -362 -98 -6 0 -26 24 -43 54 -43 76 -113 151 -163 175 -50 24 -115 27 -143 6 -18 -14 -17 -16 28 -55 98 -85 191 -229 233 -360 14 -44 19 -110 25 -325 6 -256 9 -279 42 -440 43 -206 49 -245 39 -245 -5 0 -30 10 -57 22 -40 19 -67 23 -149 23 -91 0 -106 -3 -165 -31 -86 -41 -153 -108 -192 -190 -27 -58 -31 -77 -31 -150 0 -77 3 -91 37 -158 37 -77 99 -142 157 -168 16 -7 29 -16 29 -20 0 -11 -171 -105 -250 -137 -41 -16 -88 -35 -105 -42 l-30 -12 25 -7 c45 -14 204 -11 265 5 74 19 150 54 208 94 l44 30 7 -75 c8 -89 45 -224 86 -311 15 -34 26 -64 22 -67 -5 -6 -2562 -9 -2562 -3 0 1 16 41 36 87 38 92 69 208 79 307 l7 63 31 -24 c49 -37 151 -85 214 -101 58 -15 226 -19 273 -6 28 8 22 13 -35 31 -97 31 -325 150 -325 170 0 4 14 13 31 20 49 21 127 104 157 167 24 51 27 70 27 158 0 91 -3 105 -30 158 -39 77 -127 159 -202 187 -103 39 -229 37 -320 -7 -18 -8 -36 -13 -40 -10 -3 4 14 102 38 219 l44 213 1 240 c1 209 4 250 22 317 32 117 91 224 175 316 l40 42 -59 0 c-33 0 -76 -5 -97 -11 -38 -10 -41 -9 -150 64 -113 75 -233 173 -340 276 -89 85 -255 275 -266 303 -21 56 -34 225 -28 387 5 154 23 321 34 321 3 0 27 -11 54 -25z m2119 -136 c168 -20 367 -82 526 -162 151 -76 362 -237 446 -340 l38 -45 -87 -44 c-48 -23 -149 -84 -225 -134 l-138 -91 -100 34 c-346 118 -841 132 -1220 33 -42 -10 -83 -22 -91 -25 -10 -4 -44 33 -110 122 -53 71 -141 175 -195 232 -80 85 -94 103 -72 98 23 -6 41 2 105 48 174 124 451 236 665 269 112 17 342 20 458 5z m-2050 -902 c69 -68 152 -146 184 -173 l59 -50 -16 -70 c-30 -127 -38 -188 -44 -329 -11 -260 35 -502 139 -739 l31 -70 -18 -120 c-35 -235 1 -388 137 -590 30 -43 44 -79 56 -137 9 -43 13 -81 9 -85 -21 -21 -277 232 -403 398 -383 508 -517 1179 -359 1798 29 113 88 290 98 290 1 0 59 -55 127 -123z m4774 82 c44 -20 49 -60 37 -252 -30 -434 -85 -749 -165 -928 -13 -30 -32 -61 -42 -71 -19 -16 -152 -58 -824 -258 -206 -61 -381 -118 -389 -125 -7 -7 -11 -19 -8 -27 2 -7 128 -152 278 -322 151 -170 280 -320 287 -333 23 -42 8 -70 -56 -101 -31 -16 -193 -91 -359 -167 -167 -76 -303 -141 -303 -145 0 -4 32 -43 70 -87 38 -44 70 -84 70 -87 0 -4 -19 -6 -42 -4 -41 3 -44 5 -75 63 -55 103 -95 239 -101 341 l-5 92 57 36 c31 20 56 42 56 50 0 8 -16 24 -35 36 -33 20 -35 24 -22 44 131 207 176 346 162 511 -3 44 -25 172 -48 285 -41 203 -41 207 -39 400 2 179 -11 323 -33 382 -5 12 17 21 107 43 360 87 781 285 1164 547 118 80 198 104 258 77z m-4421 -388 c29 -21 73 -51 99 -66 27 -15 50 -30 53 -35 3 -4 -9 -39 -26 -76 -54 -118 -69 -219 -69 -464 0 -159 -4 -237 -16 -298 -10 -46 -20 -79 -25 -75 -17 18 -80 219 -100 320 -26 135 -36 356 -20 487 11 96 41 246 48 246 2 0 27 -17 56 -39z m3392 -1351 c-22 -44 -41 -80 -45 -79 -8 1 -90 99 -90 107 0 8 162 61 169 55 3 -2 -13 -39 -34 -83z m-2933 -9 c113 -54 178 -147 186 -267 6 -94 -15 -157 -75 -224 -25 -28 -68 -62 -95 -76 l-49 -25 -39 31 c-138 109 -266 320 -278 456 -4 59 -3 63 23 80 88 58 233 69 327 25z m2355 -8 c53 -27 58 -33 61 -67 10 -115 -117 -344 -259 -468 l-57 -49 -51 25 c-188 96 -235 331 -96 485 74 81 151 112 267 108 63 -3 88 -9 135 -34z m-1930 -1335 c180 -300 568 -421 896 -279 115 49 247 165 313 272 l37 59 735 0 735 0 -7 -40 c-3 -22 -11 -63 -17 -90 l-11 -50 -737 0 -737 0 -49 -51 c-101 -103 -257 -185 -399 -210 -113 -19 -304 -7 -401 25 -106 36 -201 94 -284 172 l-68 64 -736 0 -736 0 -11 38 c-5 20 -13 61 -16 90 l-7 52 734 0 734 0 32 -52z m1073 40 c0 -7 -31 -42 -68 -79 -111 -108 -241 -162 -392 -163 -133 -1 -233 31 -342 106 -49 35 -138 126 -138 142 0 3 212 6 470 6 361 0 470 -3 470 -12z m-1041 -280 c106 -97 232 -164 374 -198 101 -25 276 -27 382 -5 140 29 288 106 401 208 l52 47 711 0 711 0 -6 -27 c-19 -79 -95 -271 -145 -371 -99 -193 -203 -342 -343 -491 -332 -353 -724 -566 -1216 -658 -136 -25 -554 -25 -690 0 -466 86 -844 281 -1166 602 -169 169 -295 345 -405 570 -62 128 -139 327 -139 361 0 12 107 14 711 14 l711 0 57 -52z" fill="#f9f9f9"/>
<path d="M1733 3854 c-52 -19 -118 -89 -132 -140 -26 -94 -2 -176 69 -236 161 -138 403 6 359 214 -29 133 -165 208 -296 162z m73 -58 c73 -62 -5 -179 -89 -134 -53 28 -64 92 -22 133 31 32 75 32 111 1z" fill="#f9f9f9"/>
<path d="M3293 3854 c-79 -28 -143 -122 -143 -210 0 -129 133 -243 257 -219 119 22 206 137 189 248 -24 147 -163 230 -303 181z m72 -59 c35 -34 33 -78 -4 -116 -18 -17 -40 -29 -56 -29 -33 0 -85 50 -85 82 0 23 24 66 44 80 24 17 77 8 101 -17z" fill="#f9f9f9"/>
<path d="M2577 3442 c-24 -2 -37 -8 -34 -15 5 -15 99 -16 104 -1 5 14 -21 20 -70 16z" fill="#f9f9f9"/>
<path d="M2108 3230 c-10 -13 -18 -42 -18 -63 0 -52 53 -106 133 -135 92 -35 138 -30 256 28 56 28 112 50 125 50 12 0 66 -22 120 -50 77 -39 108 -50 145 -50 77 0 146 26 196 74 39 37 45 48 45 83 0 25 -7 50 -18 63 l-19 23 0 -37 c0 -72 -78 -134 -182 -143 -55 -5 -64 -3 -161 46 -57 28 -115 51 -130 51 -14 0 -71 -22 -126 -50 -110 -55 -148 -61 -228 -34 -68 24 -114 72 -118 126 l-3 43 -17 -25z" fill="#f9f9f9"/>
</g>
</svg>