<?xml version="1.0" standalone="no"?>
<!DOCTYPE svg PUBLIC "-//W3C//DTD SVG 20010904//EN"
 "http://www.w3.org/TR/2001/REC-SVG-20010904/DTD/svg10.dtd">
<svg version="1.0" xmlns="http://www.w3.org/2000/svg"
 width="604.000000pt" height="342.000000pt" viewBox="0 0 604.000000 342.000000"
 preserveAspectRatio="xMidYMid meet">

<g transform="translate(0.000000,342.000000) scale(0.100000,-0.100000)"
fill="#ffffff" stroke="none">
<path d="M5880 3373 c-255 -18 -533 -92 -768 -204 -57 -27 -105 -49 -107 -49
-2 0 -46 -24 -98 -54 -203 -115 -400 -260 -601 -443 -109 -99 -173 -165 -368
-385 -91 -103 -145 -116 -253 -60 -65 33 -234 89 -337 111 -334 72 -688 37
-997 -98 -144 -64 -192 -56 -277 46 -329 394 -729 721 -1094 895 -162 77 -192
90 -326 134 -176 59 -351 95 -496 101 l-117 6 -7 -27 c-21 -83 61 -268 230
-520 322 -480 574 -699 1234 -1071 63 -35 108 -67 114 -81 9 -19 5 -37 -25
-102 -77 -169 -129 -407 -142 -647 -12 -236 -51 -544 -70 -564 -15 -14 -67 0
-109 28 -65 45 -111 57 -141 37 -20 -13 -25 -13 -41 -1 -28 21 -68 18 -90 -6
-16 -18 -26 -20 -69 -15 -59 7 -64 4 -94 -50 -17 -30 -37 -48 -72 -64 -84 -40
-94 -57 -94 -164 0 -64 4 -98 14 -109 12 -16 187 -17 2321 -17 2134 0 2309 1
2321 17 10 11 14 44 14 102 0 106 -14 132 -88 165 -41 18 -57 33 -76 67 -32
57 -37 60 -93 53 -38 -5 -52 -3 -74 15 -32 25 -52 26 -82 5 -18 -12 -26 -13
-38 -4 -25 22 -96 6 -153 -34 -57 -39 -66 -41 -105 -26 -31 11 -33 21 -46 260
-6 102 -12 210 -15 240 -2 30 -7 96 -10 145 -12 170 -76 443 -132 565 -20 44
-32 84 -29 96 4 15 42 42 118 84 178 99 405 237 503 305 119 83 326 257 397
334 108 117 255 306 368 475 50 75 191 338 190 353 -1 5 4 28 10 53 20 84 -5
109 -100 103z m-412 -197 c6 -27 -46 -311 -83 -453 -39 -151 -97 -297 -151
-378 -21 -33 -71 -84 -118 -122 -109 -88 -589 -406 -670 -444 l-65 -30 -39 22
c-34 20 -42 21 -56 10 -27 -23 -18 -64 39 -182 60 -127 106 -257 136 -387 15
-67 22 -148 29 -347 7 -201 14 -281 30 -355 36 -164 36 -163 13 -156 -51 16
-162 36 -205 36 -68 0 -149 -34 -198 -83 -47 -46 -125 -172 -142 -230 l-11
-37 -336 2 c-311 3 -336 4 -339 21 -2 9 2 19 10 21 7 2 39 12 71 22 60 18 147
83 147 110 0 29 -31 27 -63 -4 -97 -91 -210 -92 -347 0 -56 38 -69 43 -119 42
-64 -1 -111 -19 -196 -74 -108 -70 -186 -64 -280 21 -46 42 -58 49 -70 39 -41
-34 85 -141 187 -158 23 -4 43 -13 46 -21 4 -11 -53 -13 -332 -10 -361 4 -355
3 -356 55 0 60 -97 193 -173 237 -81 48 -227 57 -316 21 -35 -14 -81 -19 -81
-8 0 4 9 21 20 39 39 63 68 275 90 645 18 316 52 445 162 602 44 63 62 133 35
144 -8 3 -34 -1 -57 -9 -74 -25 -163 10 -335 132 -44 31 -98 68 -120 82 -321
202 -437 302 -503 434 -89 179 -182 541 -182 711 0 75 -4 74 120 43 357 -91
848 -447 1263 -919 158 -179 177 -197 226 -210 52 -14 75 -9 204 45 110 46
276 88 430 110 146 22 440 16 557 -10 108 -24 263 -77 350 -120 143 -71 190
-51 362 155 400 479 885 837 1292 955 84 24 118 21 124 -9z m-4264 -2844 l9
-43 40 6 c48 9 56 -1 57 -70 1 -45 4 -52 32 -70 17 -11 40 -37 52 -58 18 -32
19 -39 6 -47 -9 -6 -144 -10 -332 -10 l-317 0 -12 22 c-18 33 -15 99 5 130 9
14 37 36 61 49 25 13 45 31 45 39 1 8 7 25 14 38 l13 24 30 -26 c17 -14 35
-26 39 -26 5 0 26 19 47 42 l39 43 22 -28 c28 -35 49 -34 76 4 32 44 62 37 74
-19z m3659 18 c31 -37 60 -39 75 -5 16 34 26 32 63 -15 37 -45 45 -48 73 -21
33 31 47 29 60 -9 8 -22 25 -41 47 -53 75 -40 103 -104 75 -170 l-15 -37 -318
0 c-227 0 -322 3 -330 11 -17 17 21 86 58 107 25 15 29 23 29 62 0 62 11 75
62 75 35 0 43 4 46 20 8 54 13 65 31 65 11 0 31 -13 44 -30z"/>
<path d="M1982 1100 c-114 -57 -167 -145 -167 -275 1 -69 4 -87 30 -134 37
-68 103 -125 167 -147 75 -25 191 -16 251 19 183 108 210 356 52 495 -57 50
-119 72 -205 72 -54 0 -78 -6 -128 -30z m267 -58 c37 -20 71 -73 71 -110 0
-36 -25 -87 -55 -110 -20 -16 -42 -22 -78 -22 -44 0 -53 4 -88 39 -33 33 -39
45 -39 82 0 106 99 169 189 121z"/>
<path d="M3790 1121 c-49 -15 -87 -40 -127 -84 -69 -74 -78 -99 -78 -207 0
-108 14 -146 81 -214 99 -101 272 -117 391 -35 81 56 125 146 125 254 -1 115
-62 213 -164 264 -52 26 -72 31 -132 30 -39 0 -82 -4 -96 -8z m65 -75 c51 -22
77 -69 72 -130 -4 -42 -10 -55 -41 -83 -30 -28 -43 -33 -85 -33 -135 0 -180
178 -60 242 41 22 68 23 114 4z"/>
<path d="M2880 636 c-11 -22 -10 -30 14 -70 32 -55 54 -68 108 -64 36 3 47 9
75 46 34 45 42 79 21 100 -8 8 -47 12 -108 12 -92 0 -97 -1 -110 -24z"/>
</g>
</svg>
